<svg width="32" height="32" viewBox="0 0 32 32" fill="none" xmlns="http://www.w3.org/2000/svg">
<path d="M16 20C18.2091 20 20 18.2091 20 16C20 13.7909 18.2091 12 16 12C13.7909 12 12 13.7909 12 16C12 18.2091 13.7909 20 16 20Z" fill="white"/>
<path d="M25.89 12.59L23.87 11.41C23.95 10.96 24 10.49 24 10C24 9.51 23.95 9.04 23.87 8.59L25.89 7.41C26.08 7.29 26.15 7.04 26.04 6.84L24.04 3.16C23.93 2.96 23.68 2.89 23.48 2.99L21.18 3.99C20.67 3.59 20.1 3.26 19.48 3.01L19.11 0.63C19.07 0.42 18.9 0.26 18.69 0.26H14.69C14.48 0.26 14.31 0.42 14.27 0.63L13.9 3.01C13.28 3.26 12.71 3.59 12.2 3.99L9.9 2.99C9.7 2.89 9.45 2.96 9.34 3.16L7.34 6.84C7.23 7.04 7.3 7.29 7.49 7.41L9.51 8.59C9.43 9.04 9.38 9.51 9.38 10C9.38 10.49 9.43 10.96 9.51 11.41L7.49 12.59C7.3 12.71 7.23 12.96 7.34 13.16L9.34 16.84C9.45 17.04 9.7 17.11 9.9 17.01L12.2 16.01C12.71 16.41 13.28 16.74 13.9 16.99L14.27 19.37C14.31 19.58 14.48 19.74 14.69 19.74H18.69C18.9 19.74 19.07 19.58 19.11 19.37L19.48 16.99C20.1 16.74 20.67 16.41 21.18 16.01L23.48 17.01C23.68 17.11 23.93 17.04 24.04 16.84L26.04 13.16C26.15 12.96 26.08 12.71 25.89 12.59Z" fill="white" stroke="white" stroke-width="1"/>
</svg> 